<?xml version="1.0" encoding="utf-8"?>
<!-- Generator: Adobe Illustrator 25.4.1, SVG Export Plug-In . SVG Version: 6.00 Build 0)  -->
<svg version="1.1" id="Layer_1" xmlns="http://www.w3.org/2000/svg" xmlns:xlink="http://www.w3.org/1999/xlink" x="0px" y="0px"
	 viewBox="0 0 194.27 253.37" style="enable-background:new 0 0 194.27 253.37;" xml:space="preserve">
<style type="text/css">
	.st0{fill:#F15A29;}
	.st1{fill:#CA2037;}
	.st2{fill:#127DC2;}
</style>
<g>
	<g>
		<rect x="89.27" y="59.97" class="st0" width="15.45" height="78.12"/>
		<path class="st1" d="M96.9,14.08c3.95,0,3.11-0.36,6.83,0.41C94.7,8.81,89.27,5.2,82.12,1.57C50.33,8.36,26.49,36.6,26.49,70.41
			c0,32.15,21.55,59.25,50.99,67.68v-8.74v-6.05V75.04H62.03v39.6c-13.06-10.32-21.46-26.29-21.46-44.23
			C40.57,39.3,65.79,14.08,96.9,14.08z"/>
		<path class="st2" d="M96.9,0c-3.24,0-6.41,0.24-9.54,0.66c27.97,9.29,44.33,21.97,53.69,34.8c7.62,9.61,12.18,21.74,12.18,34.95
			c0,17.85-8.31,33.75-21.27,44.07V41.13h-15.45v82.09v6.12v8.69c29.34-8.5,50.8-35.54,50.8-67.62C167.31,31.52,135.78,0,96.9,0z"/>
	</g>
	<g>
		<g>
			<path class="st2" d="M1.17,194.22v-5.64c3.37,1.25,7.17,1.88,11.42,1.88c5.15,0,7.73-1.72,7.73-5.17c0-2.51-1.58-3.76-4.75-3.76
				h-5.26c-6.88,0-10.31-3.13-10.31-9.4c0-6.89,4.89-10.34,14.68-10.34c3.76,0,7.32,0.55,10.69,1.64v5.64
				c-3.37-1.25-6.93-1.88-10.69-1.88c-5.64,0-8.46,1.64-8.46,4.93c0,2.51,1.36,3.76,4.09,3.76h5.26c7.31,0,10.97,3.13,10.97,9.4
				c0,7.05-4.65,10.57-13.96,10.57C8.35,195.86,4.54,195.32,1.17,194.22z"/>
			<path class="st2" d="M31.25,171.97c3.27-0.67,6.73-1.01,10.38-1.01c8.38,0,12.57,3.91,12.57,11.72c0,8.63-3.9,12.94-11.7,12.94
				c-1.66,0-3.34-0.39-5.03-1.17v10.1h-6.23V171.97z M37.47,189.19c1.55,0.85,3.22,1.27,5,1.27c3.71,0,5.57-2.61,5.57-7.82
				c0-4.43-2.05-6.65-6.16-6.65c-1.77,0-3.24,0.11-4.42,0.33V189.19z"/>
			<path class="st2" d="M57.72,183.29c0-8.27,4.07-12.4,12.22-12.4s12.22,4.13,12.22,12.4c0,8.25-4.07,12.38-12.22,12.38
				C61.83,195.68,57.75,191.55,57.72,183.29z M69.94,190.93c3.99,0,5.99-2.58,5.99-7.73c0-5.03-2-7.54-5.99-7.54
				s-5.99,2.51-5.99,7.54C63.95,188.35,65.95,190.93,69.94,190.93z"/>
			<path class="st2" d="M86.5,166.97h4.6l0.94,3.99h6.2v4.93h-5.52v11.35c0,2.3,1,3.45,2.98,3.45h2.54v4.93H92.7
				c-4.13,0-6.2-2.22-6.2-6.65V166.97z"/>
			<path class="st2" d="M108.7,162.03v33.6h-6.23v-33.6H108.7z"/>
			<path class="st2" d="M120.8,162.03v4.93h-6.23v-4.93H120.8z M120.8,170.96v24.67h-6.23v-24.67H120.8z"/>
			<path class="st2" d="M148.69,193.75c0,7.2-4.33,10.81-12.99,10.81c-3.04,0-5.73-0.39-8.08-1.17v-4.93
				c2.4,0.78,5.11,1.17,8.13,1.17c4.48,0,6.72-1.88,6.72-5.64c-1.85,0.78-3.84,1.17-5.97,1.17c-7.33,0-11-4-11-12.01
				c0-8.13,4.27-12.19,12.8-12.19c2.87,0,6.33,0.34,10.38,1.01V193.75z M142.46,176.55c-1.02-0.38-2.47-0.56-4.35-0.56
				c-4.31,0-6.46,2.37-6.46,7.12c0,4.59,1.86,6.88,5.57,6.88c1.79,0,3.53-0.42,5.24-1.27V176.55z"/>
			<path class="st2" d="M154.56,195.63v-33.6h6.23v12.08c1.94-2.1,4.42-3.15,7.45-3.15c5.84,0,8.76,3.04,8.76,9.12v15.55h-6.23
				v-15.55c0-2.73-1.36-4.09-4.06-4.09c-2.02,0-3.99,0.81-5.92,2.42v17.22H154.56z"/>
			<path class="st2" d="M182.52,166.97h4.6l0.94,3.99h6.2v4.93h-5.52v11.35c0,2.3,1,3.45,2.98,3.45h2.54v4.93h-5.54
				c-4.13,0-6.2-2.22-6.2-6.65V166.97z"/>
			<path class="st2" d="M49,253.37v-33.6h15.74c6.39,0,9.58,2.61,9.58,7.82c0,3.82-2.08,6.55-6.25,8.2
				c4.45,0.83,6.67,3.38,6.67,7.64c0,6.62-3.5,9.94-10.5,9.94H49z M63.98,247.96c2.76,0,4.13-1.41,4.13-4.23
				c0-3.49-2.06-5.24-6.18-5.24h-1.88v-4.02c5.17-0.86,7.75-3.02,7.75-6.48c0-1.88-1.16-2.82-3.48-2.82h-9.12v22.79H63.98z"/>
			<path class="st2" d="M80.03,253.37v-33.6h13.16c11.12,0,16.68,5.29,16.68,15.88c0,11.81-5.56,17.71-16.68,17.71H80.03z
				 M93.19,247.96c6.97,0,10.45-4.1,10.45-12.31c0-6.99-3.49-10.48-10.45-10.48h-6.93v22.79H93.19z"/>
			<path class="st2" d="M118.61,253.37h-6.39l14.26-33.6h6.7l14.57,33.6h-6.7l-3.83-9.16h-11.16l2.14-5.4h6.77l-5.29-12.62
				L118.61,253.37z"/>
		</g>
	</g>
</g>
</svg>
